<?xml version="1.0" encoding="utf-8"?>
<!DOCTYPE svg PUBLIC "-//W3C//DTD SVG 1.0//EN" "http://www.w3.org/TR/2001/REC-SVG-20010904/DTD/svg10.dtd">
<svg version="1.0" id="Capa_1" xmlns="http://www.w3.org/2000/svg" xmlns:xlink="http://www.w3.org/1999/xlink" x="0px" y="0px"
	 width="27px" height="54px" viewBox="143.532 143.533 27 54" enable-background="new 143.532 143.533 27 54" xml:space="preserve">
<g>
	<path fill="#CA1312" d="M159.895,156.426l-1.513,1.513v-5.631c0-0.745-0.605-1.35-1.35-1.35c-0.745,0-1.35,0.604-1.35,1.35v5.631
		l-1.514-1.513c-0.527-0.527-1.382-0.527-1.909,0c-0.527,0.527-0.527,1.382,0,1.909l3.818,3.818h-0.001
		c0.264,0.264,0.609,0.396,0.955,0.396c0.173,0,0.346-0.033,0.507-0.1c0.163-0.065,0.315-0.163,0.447-0.296l3.817-3.817
		c0.526-0.527,0.526-1.382,0-1.909C161.278,155.898,160.422,155.898,159.895,156.426z M163.781,145.343
		c-6.457-3.727-14.711-1.515-18.438,4.941c-3.727,6.455-1.516,14.71,4.94,18.438c6.455,3.728,14.711,1.516,18.438-4.939
		C172.449,157.326,170.237,149.071,163.781,145.343z M166.383,162.432c-2.982,5.165-9.586,6.934-14.75,3.951
		c-5.164-2.981-6.935-9.585-3.953-14.75c2.981-5.165,9.585-6.935,14.75-3.952C167.595,150.663,169.365,157.268,166.383,162.432z"/>
</g>
<g>
	<path fill="#2CA211" d="M154.17,184.64l1.513-1.514v5.631c0,0.745,0.605,1.35,1.35,1.35s1.349-0.604,1.349-1.35v-5.631l1.514,1.514
		c0.527,0.526,1.382,0.526,1.909,0c0.527-0.527,0.527-1.383,0-1.909l-3.818-3.818h0.001c-0.264-0.264-0.609-0.396-0.955-0.396
		c-0.173,0-0.346,0.033-0.507,0.1c-0.163,0.065-0.315,0.163-0.447,0.296l-3.817,3.817c-0.526,0.527-0.526,1.382,0,1.908
		C152.787,185.167,153.643,185.167,154.17,184.64z M150.283,195.722c6.457,3.727,14.711,1.516,18.438-4.941
		c3.727-6.455,1.516-14.71-4.94-18.438c-6.455-3.728-14.711-1.516-18.438,4.939C141.615,183.74,143.828,191.995,150.283,195.722z
		 M147.682,178.633c2.982-5.165,9.586-6.934,14.75-3.951c5.164,2.981,6.935,9.585,3.952,14.749
		c-2.981,5.166-9.585,6.936-14.75,3.953C146.47,190.403,144.7,183.798,147.682,178.633z"/>
</g>
</svg>
