<?xml version="1.0" encoding="utf-8"?>
<!-- Generator: Adobe Illustrator 16.0.4, SVG Export Plug-In . SVG Version: 6.00 Build 0)  -->
<!DOCTYPE svg PUBLIC "-//W3C//DTD SVG 1.0//EN" "http://www.w3.org/TR/2001/REC-SVG-20010904/DTD/svg10.dtd">
<svg version="1.0" id="Layer_1" xmlns="http://www.w3.org/2000/svg" xmlns:xlink="http://www.w3.org/1999/xlink" x="0px" y="0px"
	 width="48px" height="58.431px" viewBox="0 0 48 58.431" enable-background="new 0 0 48 58.431" xml:space="preserve">
<path fill="#FFFFFF" d="M0.969,30.104c0,0,8.742,16.146,12.201,22.521c0.869,1.601,1.59,2.992,1.921,3.723
	c0.426,0.938,0.946,2.084,0.952,2.084l0.382-0.952c0,0,1.788-4.277,1.991-4.697c1.015-2.09,3.644-7.429,6.066-12.344
	C26.527,36.29,39.549,10.64,46.625,1.946c0.046-0.054,0.55-0.807,0.9-1.33c0.189-0.285,0.474-0.613,0.474-0.613
	c0.029-0.038-0.365,0.247-0.679,0.464c-0.291,0.202-1.514,1.029-1.715,1.161c-3,1.99-15.315,10.965-31.185,33.615
	c0,0-0.089,0.133-0.26,0.27c-0.115,0.094-0.265,0.187-0.451,0.24c-0.132,0.039-0.283,0.06-0.449,0.041
	c-0.131-0.013-0.273-0.049-0.426-0.115C11.595,35.095,11.613,35.062,0,28.365C0,28.365,0.914,30.003,0.969,30.104"/>
</svg>
