<svg version="1.0" id="Isolation_Mode" xmlns="http://www.w3.org/2000/svg" xmlns:xlink="http://www.w3.org/1999/xlink" x="0px"
	 y="0px" width="19.399px" height="50.264px" viewBox="0 0 19.399 50.264" enable-background="new 0 0 19.399 50.264"
	 xml:space="preserve">
<path fill="#FFFFFF" d="M9.713,39.127H9.702H9.69c-0.836-0.004-1.59-0.081-2.275-0.212c-0.286,2.625-0.634,5.213-0.634,5.213
	c-0.969,6.11,2.724,6.132,2.921,6.135c0.194,0.005,3.888-0.025,2.921-6.135c0,0-0.351-2.588-0.637-5.213
	C11.302,39.046,10.548,39.124,9.713,39.127"/>
<path fill="#FFFFFF" d="M9.702,0.003c-0.327-0.014-7.03-0.299-8.505,10.017c0,0-2.693,14.48,0,23.066c0,0,1.573,5.113,8.493,5.125
	v0.002h0.012h0.011v-0.002c6.916-0.012,8.489-5.125,8.489-5.125c2.693-8.586,0-23.066,0-23.066C16.828,0.416,10.925,0,9.856,0
	C9.777,0,9.725,0.002,9.702,0.003"/>
</svg>
