<svg version="1.0" id="Layer_1" xmlns="http://www.w3.org/2000/svg" xmlns:xlink="http://www.w3.org/1999/xlink" x="0px" y="0px"
	 width="45.378px" height="48px" viewBox="21.844 0 45.378 48" enable-background="new 21.844 0 45.378 48" xml:space="preserve">
<g>
	<g>
		<g>
			<path fill="#FFFFFF" d="M66.7,7.145l-6.612-6.631c-0.685-0.685-1.8-0.685-2.494,0c-0.685,0.685-0.685,1.799,0,2.494l3.619,3.619
				h-7.071c-8.343,0-15.131,6.788-15.131,15.131v4.479c0,6.407-5.213,11.61-11.61,11.61h-3.795c-0.968,0-1.761,0.792-1.761,1.761
				s0.782,1.761,1.761,1.761H27.4c8.343,0,15.131-6.788,15.131-15.131v-4.479c0-6.407,5.213-11.61,11.61-11.61h7.071l-3.619,3.619
				c-0.685,0.685-0.685,1.8,0,2.494c0.342,0.342,0.792,0.519,1.242,0.519c0.45,0,0.9-0.176,1.242-0.519L66.7,9.639
				C67.384,8.955,67.384,7.839,66.7,7.145z"/>
		</g>
	</g>
	<g>
		<g>
			<path fill="#FFFFFF" d="M38.247,11.214C35.381,8.25,31.527,6.626,27.4,6.626h-3.795c-0.968,0-1.761,0.792-1.761,1.761
				s0.782,1.761,1.761,1.761H27.4c3.159,0,6.123,1.252,8.324,3.521c0.342,0.352,0.802,0.538,1.262,0.538
				c0.44,0,0.88-0.167,1.222-0.499C38.902,13.033,38.922,11.918,38.247,11.214z"/>
		</g>
	</g>
	<g>
		<g>
			<path fill="#FFFFFF" d="M66.709,38.366l-6.622-6.622c-0.685-0.685-1.8-0.685-2.494,0c-0.685,0.685-0.685,1.8,0,2.494l3.619,3.619
				h-7.071c-3.169,0-6.123-1.252-8.324-3.521c-0.675-0.694-1.79-0.714-2.494-0.039c-0.694,0.675-0.714,1.79-0.039,2.494
				c2.875,2.954,6.729,4.587,10.857,4.587h7.071l-3.619,3.619c-0.685,0.685-0.685,1.79,0.01,2.484
				C57.946,47.824,58.396,48,58.846,48c0.45,0,0.9-0.176,1.242-0.519l6.622-6.622C67.394,40.175,67.394,39.06,66.709,38.366z"/>
		</g>
	</g>
</g>
</svg>
