<svg version="1.0" id="Layer_1" xmlns="http://www.w3.org/2000/svg" xmlns:xlink="http://www.w3.org/1999/xlink" x="0px" y="0px"
	 width="48px" height="38.991px" viewBox="0 0 48 38.991" enable-background="new 0 0 48 38.991" xml:space="preserve">
<g>
	<path fill="#FFFFFF" d="M48,4.612c-1.758,0.779-3.662,1.32-5.654,1.557c2.036-1.22,3.589-3.152,4.336-5.453
		c-1.904,1.128-4.014,1.95-6.27,2.388C38.625,1.199,36.062,0,33.235,0c-5.435,0-9.846,4.409-9.846,9.843
		c0,0.777,0.092,1.521,0.253,2.243C15.453,11.673,8.204,7.762,3.341,1.8C2.49,3.25,2.007,4.949,2.007,6.752
		c0,3.413,1.743,6.433,4.379,8.187c-1.612-0.041-3.12-0.494-4.451-1.23v0.12c0,4.774,3.396,8.758,7.894,9.667
		c-0.823,0.22-1.699,0.336-2.591,0.336c-0.63,0-1.246-0.058-1.861-0.176c1.26,3.911,4.888,6.753,9.199,6.841
		C11.203,33.132,6.956,34.7,2.343,34.7c-0.791,0-1.567-0.045-2.343-0.132c4.365,2.797,9.535,4.423,15.1,4.423
		c18.105,0,28.008-14.999,28.008-28.006l-0.029-1.274C45.012,8.32,46.682,6.592,48,4.612L48,4.612z M48,4.612"/>
</g>
</svg>
