<?xml version="1.0" encoding="utf-8"?>
<!-- Generator: Adobe Illustrator 16.0.4, SVG Export Plug-In . SVG Version: 6.00 Build 0)  -->
<!DOCTYPE svg PUBLIC "-//W3C//DTD SVG 1.0//EN" "http://www.w3.org/TR/2001/REC-SVG-20010904/DTD/svg10.dtd">
<svg version="1.0" id="Layer_1" xmlns="http://www.w3.org/2000/svg" xmlns:xlink="http://www.w3.org/1999/xlink" x="0px" y="0px"
	 width="48px" height="48px" viewBox="0 0 48 48" enable-background="new 0 0 48 48" xml:space="preserve">
<g>
	<path fill="#FFFFFF" d="M47.803,22.549c-0.059,6.192-1.651,11.037-4.962,15.247c-3.556,4.522-8.185,7.394-13.85,8.556
		c-4.376,0.889-8.634,0.498-12.815-1.016c-0.928-0.342-1.836-0.742-2.705-1.221c-0.264-0.146-0.489-0.166-0.782-0.068
		c-3.956,1.279-7.921,2.549-11.887,3.809c-0.176,0.059-0.41,0.225-0.547,0.098c-0.156-0.156,0.039-0.391,0.098-0.576
		c0.791-2.354,1.583-4.717,2.383-7.071c0.488-1.436,0.957-2.861,1.465-4.288c0.137-0.371,0.088-0.654-0.117-0.996
		c-1.006-1.719-1.748-3.555-2.275-5.479c-0.987-3.613-1.094-7.267-0.323-10.919c0.84-3.985,2.598-7.541,5.304-10.607
		c3.272-3.712,7.306-6.163,12.102-7.345c3.057-0.753,6.144-0.87,9.249-0.361c4.063,0.664,7.727,2.275,10.92,4.873
		c3.321,2.706,5.743,6.065,7.268,10.1C47.168,17.46,47.832,21.025,47.803,22.549z M6.214,42.054
		c2.422-0.781,4.737-1.523,7.032-2.275c0.303-0.098,0.547-0.078,0.811,0.098c0.879,0.586,1.826,1.055,2.803,1.465
		c3.174,1.349,6.476,1.837,9.884,1.397c4.181-0.537,7.854-2.218,10.939-5.138c3.888-3.683,5.968-8.195,6.153-13.528
		c0.176-5.225-1.504-9.815-5.011-13.713c-3.33-3.701-7.511-5.812-12.443-6.339c-4.288-0.459-8.302,0.469-12.013,2.696
		c-3.174,1.914-5.606,4.521-7.296,7.813c-1.865,3.624-2.5,7.472-1.963,11.506c0.4,3.047,1.494,5.851,3.252,8.37
		c0.195,0.283,0.254,0.518,0.137,0.85c-0.361,0.997-0.684,2.003-1.026,2.999C7.063,39.485,6.663,40.716,6.214,42.054z"/>
	<path fill="#FFFFFF" d="M12.699,17.948c0.049-2.324,0.87-4.053,2.422-5.43c0.498-0.45,1.113-0.646,1.807-0.548
		c0.293,0.039,0.586,0.068,0.879,0.049c0.547-0.029,0.918,0.235,1.104,0.714c0.655,1.699,1.29,3.398,1.924,5.107
		c0.215,0.587-0.156,1.046-0.469,1.466c-0.361,0.498-0.801,0.938-1.231,1.377c-0.439,0.449-0.498,0.703-0.195,1.25
		c1.768,3.214,4.249,5.685,7.618,7.208c0.117,0.049,0.234,0.117,0.352,0.176c0.449,0.205,0.85,0.156,1.191-0.234
		c0.626-0.732,1.31-1.406,1.886-2.178c0.381-0.508,0.645-0.596,1.221-0.342c1.719,0.742,3.331,1.68,4.972,2.588
		c0.303,0.166,0.41,0.42,0.4,0.771c-0.088,2.882-1.738,4.386-4.64,5.05c-1.406,0.322-2.705-0.029-3.995-0.498
		c-2.705-0.977-5.312-2.129-7.5-4.062c-1.739-1.544-3.272-3.263-4.571-5.187c-0.996-1.485-2.031-2.94-2.608-4.669
		C12.934,19.639,12.689,18.701,12.699,17.948z"/>
</g>
</svg>
