<?xml version="1.0" encoding="utf-8"?>
<!DOCTYPE svg PUBLIC "-//W3C//DTD SVG 1.0//EN" "http://www.w3.org/TR/2001/REC-SVG-20010904/DTD/svg10.dtd">
<svg version="1.0" xmlns="http://www.w3.org/2000/svg" xmlns:xlink="http://www.w3.org/1999/xlink" x="0px" y="0px"
	 width="102px" height="296px" viewBox="0 0 89 296" enable-background="new 0 0 89 296"
	 xml:space="preserve">

	 <defs>
	 	<linearGradient gradientUnits="userSpaceOnUse"  id="cblack" x1="0%" y1="100%" x2="0%" y2="0%">
	 	    <stop offset="0%"  stop-color="#361f2f"/>
	 	    <stop offset="0%" stop-color="transparent" stop-opacity="0"/>
	 	</linearGradient>
	 </defs>


<path fill="#ffffff"  fill-opacity="0.8" stroke="#ffffff" stroke-miterlimit="10" d="M91.364,144.345c0,0-5.971-103.264-5.971-110.64c0-7.297-7.565-33.149-39.69-33.705
	C13.578,0.556,6.012,26.408,6.012,33.705c0,7.376-5.971,110.64-5.971,110.64s-2.715,39.921,35.914,45.67l-4.654,47.056
	c0,0-5.269,28.802,15.455,28.802c20.723,0,15.454-28.802,15.454-28.802l-4.688-47.403C93.98,182.824,91.364,144.345,91.364,144.345z
	"/>

<path fill="url(#cblack)" d="M91.364,144.345c0,0-5.971-103.264-5.971-110.64c0-7.297-7.565-33.149-39.69-33.705
	C13.578,0.556,6.012,26.408,6.012,33.705c0,7.376-5.971,110.64-5.971,110.64s-2.715,39.921,35.914,45.67l-4.654,47.056
	c0,0-5.269,28.802,15.455,28.802c20.723,0,15.454-28.802,15.454-28.802l-4.688-47.403C93.98,182.824,91.364,144.345,91.364,144.345z
	"/>

</svg>
