<svg version="1.1" id="Capa_1" xmlns="http://www.w3.org/2000/svg" xmlns:xlink="http://www.w3.org/1999/xlink" x="0px" y="0px"
	 width="64px" height="64px" viewBox="274 274 64 64" enable-background="new 274 274 64 64" xml:space="preserve">
<g>
	<g id="tick">
		<g>
			<path fill="#FFFFFF" d="M319.668,294.57L301,313.238l-8.666-8.668c-0.762-0.762-2-0.762-2.762,0c-0.762,0.762-0.762,2,0,2.762
				l9.81,9.81c0.066,0.095,0.106,0.203,0.19,0.286c0.394,0.395,0.912,0.576,1.428,0.562c0.516,0.012,1.036-0.168,1.43-0.562
				c0.084-0.084,0.124-0.191,0.19-0.286l19.81-19.81c0.763-0.762,0.763-2,0-2.762C321.666,293.808,320.43,293.808,319.668,294.57z
				 M306,274c-17.674,0-32,14.326-32,32s14.326,32,32,32c17.672,0,32-14.326,32-32S323.674,274,306,274z M306,334
				c-15.464,0-28-12.536-28-28s12.536-28,28-28s28,12.536,28,28S321.464,334,306,334z"/>
		</g>
	</g>
</g>
</svg>
