<svg version="1.1" id="Capa_1" xmlns="http://www.w3.org/2000/svg" xmlns:xlink="http://www.w3.org/1999/xlink" x="0px" y="0px"
	 width="64px" height="64px" viewBox="448 448 64 64" enable-background="new 448 448 64 64" xml:space="preserve">
<path fill="#FFFFFF" d="M491.314,493.486c-0.568,0.568-1.058,1.193-1.48,1.854l-18.747-11.379c0.496-1.24,0.777-2.59,0.777-4.006
	s-0.281-2.766-0.776-4.006l18.75-11.292c1.926,3.024,5.302,5.04,9.146,5.04c5.981,0,10.849-4.867,10.849-10.849
	c0-5.981-4.867-10.848-10.849-10.848c-5.982,0-10.849,4.867-10.849,10.849c0,1.362,0.264,2.662,0.724,3.864l-18.775,11.308
	c-1.939-2.955-5.279-4.914-9.07-4.914c-5.981,0-10.848,4.867-10.848,10.849c0,5.981,4.867,10.849,10.848,10.849
	c3.792,0,7.13-1.958,9.069-4.914l18.772,11.395c-0.467,1.222-0.721,2.526-0.721,3.873c0,2.897,1.128,5.623,3.178,7.671
	c2.114,2.114,4.893,3.172,7.671,3.172s5.557-1.058,7.671-3.172c2.049-2.05,3.177-4.773,3.177-7.671s-1.128-5.623-3.177-7.671
	C502.425,489.255,495.544,489.255,491.314,493.486z M498.985,450.169c4.785,0,8.679,3.894,8.679,8.679
	c0,4.785-3.894,8.679-8.679,8.679s-8.679-3.894-8.679-8.679C490.307,454.063,494.199,450.169,498.985,450.169z M461.016,488.634
	c-4.785,0-8.679-3.894-8.679-8.679s3.894-8.679,8.679-8.679c4.786,0,8.679,3.894,8.679,8.679S465.801,488.634,461.016,488.634z
	 M505.121,507.294c-3.384,3.384-8.89,3.384-12.272,0c-1.64-1.639-2.542-3.819-2.542-6.137s0.902-4.498,2.542-6.137
	c1.692-1.692,3.914-2.538,6.137-2.538s4.444,0.846,6.137,2.538c1.64,1.639,2.542,3.819,2.542,6.137S506.762,505.655,505.121,507.294
	z"/>
</svg>
