<svg version="1.0" id="Capa_1" xmlns="http://www.w3.org/2000/svg" xmlns:xlink="http://www.w3.org/1999/xlink" x="0px" y="0px"
	 width="960px" height="960px" viewBox="0 0 960 960" enable-background="new 0 0 960 960" xml:space="preserve">
<path fill="#FFFFFF" d="M649.715,682.292c-8.527,8.527-15.866,17.9-22.212,27.811l-281.19-170.684
	c7.437-18.615,11.651-38.858,11.651-60.095c0-21.235-4.215-41.479-11.635-60.094l281.255-169.381
	c28.884,45.368,79.524,75.602,137.194,75.602c89.727,0,162.726-72.999,162.726-162.726S854.505,0,764.778,0
	c-89.728,0-162.726,72.999-162.726,162.726c0,20.438,3.954,39.933,10.854,57.963L331.277,390.297
	c-29.096-44.326-79.183-73.698-136.055-73.698c-89.727,0-162.726,72.999-162.726,162.725c0,89.728,72.999,162.727,162.726,162.727
	c56.873,0,106.943-29.372,136.039-73.699l281.58,170.911c-6.997,18.323-10.805,37.898-10.805,58.093
	c0,43.464,16.924,84.341,47.662,115.063C681.414,944.135,723.088,960,764.762,960s83.348-15.865,115.063-47.581
	c30.739-30.739,47.662-71.6,47.662-115.063s-16.923-84.341-47.662-115.063C816.378,618.829,713.161,618.829,649.715,682.292z
	 M764.778,32.545c71.778,0,130.181,58.402,130.181,130.181s-58.402,130.181-130.181,130.181s-130.181-58.402-130.181-130.181
	S692.983,32.545,764.778,32.545z M195.238,609.505c-71.778,0-130.181-58.402-130.181-130.181c0-71.777,58.402-130.18,130.181-130.18
	s130.181,58.403,130.181,130.18C325.419,551.103,267.017,609.505,195.238,609.505z M856.815,889.41
	c-50.754,50.754-133.337,50.754-184.091,0c-24.588-24.588-38.127-57.296-38.127-92.055c0-34.758,13.539-67.466,38.127-92.054
	c25.385-25.385,58.711-38.062,92.054-38.062c33.342,0,66.669,12.677,92.054,38.062c24.588,24.588,38.127,57.296,38.127,92.054
	C894.959,832.114,881.42,864.822,856.815,889.41z"/>
</svg>
