<svg version="1.0" id="Capa_1" xmlns="http://www.w3.org/2000/svg" xmlns:xlink="http://www.w3.org/1999/xlink" x="0px" y="0px"
	 width="960px" height="960px" viewBox="0 0 960 960" enable-background="new 0 0 960 960" xml:space="preserve">
<g>
	<path fill="#FFFFFF" d="M604.75,466.03L422.682,350.168c-5.099-3.228-11.554-3.443-16.866-0.546
		c-5.28,2.913-8.574,8.475-8.574,14.516v231.725c0,6.041,3.294,11.603,8.591,14.516c2.482,1.357,5.214,2.036,7.961,2.036
		c3.096,0,6.19-0.878,8.889-2.582L604.75,493.97c4.768-3.046,7.664-8.31,7.664-13.97C612.414,474.339,609.518,469.076,604.75,466.03
		z M430.345,565.722V394.279L565.026,480L430.345,565.722z"/>
	<path fill="#FFFFFF" d="M943.448,99.311H777.931H182.069H16.552C7.415,99.311,0,106.709,0,115.862v182.069V480v182.069v182.068
		c0,9.153,7.415,16.552,16.552,16.552h165.517h595.862h165.518c9.137,0,16.552-7.398,16.552-16.552V662.069V480V297.931V115.862
		C960,106.709,952.585,99.311,943.448,99.311z M165.517,463.448H33.104V314.483h132.414V463.448z M33.104,496.552h132.414v148.966
		H33.104V496.552z M198.621,662.069V480V297.931V132.414h562.758v165.517V480v182.069v165.517H198.621V662.069z M926.896,463.448
		H794.482V314.483h132.414V463.448z M794.482,496.552h132.414v148.966H794.482V496.552z M926.896,132.414v148.965H794.482V132.414
		H926.896z M33.104,132.414h132.414v148.965H33.104V132.414z M33.104,827.586V678.621h132.414v148.965H33.104z M926.896,827.586
		H794.482V678.621h132.414V827.586z"/>
</g>
</svg>
