<!DOCTYPE svg PUBLIC "-//W3C//DTD SVG 1.1//EN" "http://www.w3.org/Graphics/SVG/1.1/DTD/svg11.dtd">
<svg version="1.1" id="Capa_1" xmlns="http://www.w3.org/2000/svg" xmlns:xlink="http://www.w3.org/1999/xlink" x="0px" y="0px"
	 width="64px" height="64px" viewBox="448 448 64 64" enable-background="new 448 448 64 64" xml:space="preserve">
<g>
	<path fill="#FFFFFF" d="M488.317,479.069l-12.138-7.724c-0.34-0.215-0.77-0.229-1.125-0.036c-0.352,0.194-0.571,0.565-0.571,0.967
		v15.449c0,0.402,0.219,0.773,0.573,0.968c0.166,0.09,0.348,0.136,0.531,0.136c0.206,0,0.413-0.059,0.592-0.173l12.138-7.724
		c0.317-0.203,0.511-0.554,0.511-0.932C488.828,479.623,488.635,479.272,488.317,479.069z M476.69,485.715v-11.429l8.979,5.714
		L476.69,485.715z"/>
	<path fill="#FFFFFF" d="M510.896,454.621h-11.034h-39.724h-11.034c-0.609,0-1.104,0.493-1.104,1.104v12.138V480v12.138v12.139
		c0,0.609,0.494,1.104,1.104,1.104h11.034h39.724h11.035c0.608,0,1.103-0.493,1.103-1.104v-12.139V480v-12.138v-12.138
		C512,455.114,511.506,454.621,510.896,454.621z M459.035,478.897h-8.828v-9.931h8.828V478.897L459.035,478.897z M450.208,481.104
		h8.828v9.932h-8.828V481.104z M461.242,492.138V480v-12.138v-11.035h37.517v11.035V480v12.138v11.035h-37.517V492.138z
		 M509.794,478.897h-8.828v-9.931h8.828V478.897z M500.966,481.104h8.828v9.932h-8.828V481.104z M509.794,456.828v9.931h-8.828
		v-9.931H509.794z M450.208,456.828h8.828v9.931h-8.828V456.828z M450.208,503.173v-9.932h8.828v9.932H450.208L450.208,503.173z
		 M509.794,503.173h-8.828v-9.932h8.828V503.173z"/>
</g>
</svg>
