<svg version="1.1" id="Capa_1" xmlns="http://www.w3.org/2000/svg" xmlns:xlink="http://www.w3.org/1999/xlink" x="0px" y="0px"
	 width="64px" height="64px" viewBox="448 448 64 64" enable-background="new 448 448 64 64" xml:space="preserve">
<g>
	<circle fill="#FFFFFF" cx="480.431" cy="454.517" r="6.517"/>
	<path fill="#FFFFFF" d="M501.392,449.936c-1.081-1.077-2.827-1.077-3.9,0l-13.226,13.224c-1.051-0.687-2.303-1.089-3.651-1.089
		c-1.666,0-3.185,0.611-4.356,1.615l-13.75-13.75c-1.076-1.077-2.824-1.077-3.901,0c-1.076,1.077-1.076,2.825,0,3.901l14.492,14.492
		c0.241,0.241,0.52,0.42,0.814,0.554v15.654c0,0.012,0.001,0.023,0.001,0.035c-3.311,6.886-6.221,14.544-8.581,21.558
		c-1.717,5.105,5.991,8.437,7.718,3.308c2.101-6.246,4.638-12.999,7.505-19.267c2.846,6.369,5.737,12.717,8.842,18.965
		c2.406,4.85,9.647,0.596,7.249-4.237c-3.196-6.431-6.407-13.808-9.333-20.363V468.77c0-0.27-0.021-0.537-0.052-0.801l14.129-14.131
		C502.47,452.761,502.47,451.013,501.392,449.936z"/>
</g>
</svg>
