<svg version="1.0" id="Capa_1" xmlns="http://www.w3.org/2000/svg" xmlns:xlink="http://www.w3.org/1999/xlink" x="0px" y="0px"
	 width="960px" height="960px" viewBox="0 0 960 960" enable-background="new 0 0 960 960" xml:space="preserve">
<g>
	<circle fill="#FFFFFF" cx="486.318" cy="95.717" r="95.717"/>
	<path fill="#FFFFFF" d="M794.164,28.426c-15.874-15.822-41.523-15.822-57.277,0l-194.245,194.21
		c-15.431-10.083-33.823-15.993-53.632-15.993c-24.457,0-46.769,8.976-63.971,23.725L223.096,28.426
		c-15.805-15.822-41.472-15.822-57.294,0c-15.806,15.822-15.806,41.489,0,57.294l212.843,212.843
		c3.543,3.542,7.631,6.166,11.956,8.141v229.892c0,0.178,0.012,0.353,0.014,0.528c-48.622,101.119-91.366,213.59-126.019,316.604
		c-25.213,74.979,87.996,123.897,113.354,48.579c30.846-91.734,68.11-190.916,110.224-282.957
		c41.792,93.533,84.258,186.761,129.852,278.514c35.34,71.225,141.681,8.761,106.468-62.223
		c-46.942-94.447-94.111-202.785-137.073-299.062V305.035c0-3.969-0.307-7.886-0.767-11.769L794.164,85.72
		C810.003,69.915,810.003,44.248,794.164,28.426z"/>
</g>
</svg>
