<svg version="1.0" id="Layer_1" xmlns="http://www.w3.org/2000/svg" xmlns:xlink="http://www.w3.org/1999/xlink" x="0px" y="0px"
	 width="64px" height="64px" viewBox="0 0 64 64" enable-background="new 0 0 64 64" xml:space="preserve">
<g>
	<g>
		<path fill="#FFFFFF" d="M32,0C14.355,0,0,14.355,0,32c0,17.645,14.355,32,32,32c17.645,0,32-14.355,32-32C64,14.355,49.645,0,32,0
			z M32,60C16.561,60,4,47.439,4,32C4,16.561,16.561,4,32,4c15.439,0,28,12.561,28,28C60,47.439,47.439,60,32,60z"/>
		<circle fill="#FFFFFF" cx="20.518" cy="21.361" r="4.338"/>
		<circle fill="#FFFFFF" cx="43.48" cy="21.361" r="4.338"/>
		<path fill="#FFFFFF" d="M52.541,36.568c-1.053-0.316-2.172,0.287-2.488,1.344C50.018,38.031,46.314,49.859,32,49.859
			c-14.219,0-17.904-11.467-18.055-11.955c-0.32-1.055-1.441-1.65-2.486-1.336C10.4,36.885,9.799,38,10.115,39.057
			C10.16,39.205,14.742,53.859,32,53.859s21.84-14.654,21.885-14.803C54.201,38,53.6,36.885,52.541,36.568z"/>
	</g>
</g>
</svg>
