<?xml version="1.0" encoding="utf-8"?>
<!-- Generator: Adobe Illustrator 16.0.4, SVG Export Plug-In . SVG Version: 6.00 Build 0)  -->
<!DOCTYPE svg PUBLIC "-//W3C//DTD SVG 1.0//EN" "http://www.w3.org/TR/2001/REC-SVG-20010904/DTD/svg10.dtd">
<svg version="1.0" id="Layer_1" xmlns="http://www.w3.org/2000/svg" xmlns:xlink="http://www.w3.org/1999/xlink" x="0px" y="0px"
	 width="48px" height="48px" viewBox="0 0 48 48" enable-background="new 0 0 48 48" xml:space="preserve">
<g>
	<path fill="#FFFFFF" d="M48,9.118c-1.758,0.776-3.662,1.318-5.653,1.553c2.035-1.216,3.588-3.149,4.335-5.448
		c-1.904,1.127-4.014,1.947-6.27,2.387c-1.786-1.904-4.351-3.105-7.177-3.105c-5.435,0-9.843,4.409-9.843,9.844
		c0,0.776,0.088,1.522,0.249,2.24C15.453,16.179,8.202,12.268,3.34,6.306c-0.85,1.45-1.333,3.149-1.333,4.951
		c0,3.412,1.743,6.431,4.38,8.188c-1.611-0.045-3.12-0.498-4.453-1.23v0.116c0,4.775,3.398,8.76,7.896,9.668
		c-0.82,0.22-1.699,0.336-2.593,0.336c-0.63,0-1.245-0.058-1.86-0.175c1.26,3.911,4.893,6.752,9.198,6.84
		c-3.369,2.637-7.616,4.204-12.23,4.204c-0.791,0-1.567-0.044-2.344-0.132c4.365,2.797,9.535,4.424,15.102,4.424
		c18.104,0,28.006-14.999,28.006-28.007l-0.029-1.273C45.012,12.824,46.682,11.096,48,9.118L48,9.118z M48,9.118"/>
</g>
</svg>
